<svg xmlns="http://www.w3.org/2000/svg" viewBox="0 0 1200 900" role="img" aria-labelledby="title desc">
  <title id="title">Cupcakes</title>
  <desc id="desc">Stylized cupcakes illustration for home page slider.</desc>
  <defs>
    <linearGradient id="bg" x1="0" y1="0" x2="1" y2="1">
      <stop offset="0%" stop-color="#e7f8ff"/>
      <stop offset="100%" stop-color="#d4f0ff"/>
    </linearGradient>
  </defs>
  <rect width="1200" height="900" fill="url(#bg)"/>
  <ellipse cx="600" cy="770" rx="380" ry="70" fill="#9dd3ea" opacity="0.36"/>
  <g transform="translate(250,300)">
    <path d="M60 280 H220 L190 430 H90 Z" fill="#ffb15d"/>
    <circle cx="140" cy="250" r="80" fill="#ffcde0"/>
    <circle cx="120" cy="215" r="22" fill="#f3547a"/>
    <circle cx="165" cy="200" r="18" fill="#f3547a"/>
  </g>
  <g transform="translate(500,260)">
    <path d="M70 320 H250 L210 500 H110 Z" fill="#74c9ff"/>
    <circle cx="160" cy="275" r="95" fill="#ffe48f"/>
    <circle cx="140" cy="235" r="26" fill="#ff7f3f"/>
    <circle cx="190" cy="220" r="22" fill="#ff7f3f"/>
  </g>
  <g transform="translate(790,320)">
    <path d="M40 260 H200 L175 400 H65 Z" fill="#9adf85"/>
    <circle cx="120" cy="230" r="75" fill="#f4d7ff"/>
    <circle cx="100" cy="198" r="20" fill="#9a64d6"/>
    <circle cx="145" cy="190" r="16" fill="#9a64d6"/>
  </g>
</svg>
