<svg xmlns="http://www.w3.org/2000/svg" viewBox="0 0 1200 900" role="img" aria-labelledby="title desc">
  <title id="title">Birthday cake</title>
  <desc id="desc">Stylized birthday cake illustration for home page slider.</desc>
  <defs>
    <linearGradient id="bg" x1="0" y1="0" x2="1" y2="1">
      <stop offset="0%" stop-color="#fff3d9"/>
      <stop offset="100%" stop-color="#ffe5b0"/>
    </linearGradient>
    <linearGradient id="cake" x1="0" y1="0" x2="0" y2="1">
      <stop offset="0%" stop-color="#ffcf6b"/>
      <stop offset="100%" stop-color="#ffb43e"/>
    </linearGradient>
  </defs>
  <rect width="1200" height="900" fill="url(#bg)"/>
  <ellipse cx="600" cy="760" rx="370" ry="70" fill="#e8b55b" opacity="0.4"/>
  <rect x="300" y="360" width="600" height="300" rx="30" fill="url(#cake)"/>
  <rect x="330" y="420" width="540" height="24" rx="12" fill="#fff7e5"/>
  <rect x="330" y="490" width="540" height="24" rx="12" fill="#fff7e5"/>
  <path d="M300 360 C390 290, 810 290, 900 360" fill="#fff8dc"/>
  <rect x="430" y="230" width="22" height="90" rx="11" fill="#70c1ff"/>
  <rect x="589" y="220" width="22" height="100" rx="11" fill="#8ee36d"/>
  <rect x="748" y="230" width="22" height="90" rx="11" fill="#ff6f9f"/>
  <ellipse cx="441" cy="220" rx="13" ry="20" fill="#ff7f3f"/>
  <ellipse cx="600" cy="210" rx="13" ry="20" fill="#ff7f3f"/>
  <ellipse cx="759" cy="220" rx="13" ry="20" fill="#ff7f3f"/>
</svg>
